<svg xmlns="http://www.w3.org/2000/svg" xmlns:xlink="http://www.w3.org/1999/xlink" viewBox="0 0 1920 1080"><defs><style>.a{clip-path:url(#b);}.b,.d{fill:#707070;}.b,.d,.f,.g,.h{font-size:20px;}.b{font-family:SegoeUI, Segoe UI;}.c,.e,.j{fill:none;}.c,.e{stroke:#707070;}.d{font-family:SegoeUIBlack, Segoe UI;}.e{stroke-width:5px;}.f{fill:#004cff;}.f,.g,.h{font-family:SegoeUI-Semibold, Segoe UI;font-weight:600;}.g{fill:#ff0080;}.h{fill:#04bc28;}.i{stroke:none;}.k{fill:#fff;}</style><clipPath id="b"><rect width="1920" height="1080"/></clipPath></defs><g id="a" class="a"><rect class="k" width="1920" height="1080"/><g transform="translate(-170 -413)"><text class="b" transform="translate(294.405 652)"><tspan x="48.081" y="22">B.UI</tspan></text><g class="c" transform="translate(274 636)"><rect class="i" width="171.836" height="57"/><rect class="j" x="0.5" y="0.5" width="170.836" height="56"/></g></g><g transform="translate(-170 -220)"><text class="b" transform="translate(294.405 652)"><tspan x="42.9" y="22">B.API</tspan></text><g class="c" transform="translate(274 636)"><rect class="i" width="171.836" height="57"/><rect class="j" x="0.5" y="0.5" width="170.836" height="56"/></g></g><g transform="translate(-170 -28)"><text class="b" transform="translate(294.405 652)"><tspan x="43.75" y="22">F.API</tspan></text><g class="c" transform="translate(274 636)"><rect class="i" width="171.836" height="57"/><rect class="j" x="0.5" y="0.5" width="170.836" height="56"/></g></g><g transform="translate(-170 165)"><text class="b" transform="translate(294.405 652)"><tspan x="48.93" y="22">F.UI</tspan></text><g class="c" transform="translate(274 636)"><rect class="i" width="171.836" height="57"/><rect class="j" x="0.5" y="0.5" width="170.836" height="56"/></g></g><text class="d" transform="translate(889.406 527)"><tspan x="2.431" y="22">Message API</tspan></text><text class="b" transform="translate(1654.406 527)"><tspan x="24.975" y="22">Recipient</tspan></text><g class="e" transform="translate(869 223)"><rect class="i" width="171.836" height="635"/><rect class="j" x="2.5" y="2.5" width="166.836" height="630"/></g><g class="c" transform="translate(1634 223)"><rect class="i" width="171.836" height="635"/><rect class="j" x="0.5" y="0.5" width="170.836" height="634"/></g><path class="c" d="M1530,45.293V0H0V45.021" transform="translate(189.5 178.5)"/><line class="c" x2="593.642" transform="translate(1040.5 444.5)"/><line class="c" x2="593.642" transform="translate(1040.5 501.5)"/><text class="f" transform="translate(955 172)"><tspan x="-298.271" y="0">&lt; #3 recipient opens magic link and comes right into the backend</tspan></text><text class="g" transform="translate(955 136)"><tspan x="-298.271" y="0">&lt; #5 recipient opens magic link and comes right into the backend</tspan></text><text class="f" transform="translate(1338 438)"><tspan x="-153.691" y="0">#2 send mail to contact address &gt;</tspan></text><text class="g" transform="translate(1338 495)"><tspan x="-153.901" y="0">#4 send mail to contact address &gt;</tspan></text><line class="c" x2="593.642" transform="translate(275.5 424.5)"/><line class="c" x2="593.642" transform="translate(275.5 463.5)"/><line class="c" x2="593.642" transform="translate(275.5 637.5)"/><line class="c" x2="593.642" transform="translate(1041.5 637.5)"/><line class="c" y1="137" transform="translate(189.5 664.5)"/><line class="c" y1="136" transform="translate(189.5 472.5)"/><text class="f" transform="translate(573 418)"><tspan x="-185.801" y="0">#1 orders update mails to dusty entries &gt;</tspan></text><text class="g" transform="translate(573 457)"><tspan x="-171.973" y="0">#3 orders admin mail for ONE entry &gt;</tspan></text><text class="h" transform="translate(573 631)"><tspan x="-262.183" y="0">#2 orders ONE message to be sent to an entry&apos;s contact &gt;</tspan></text><text class="h" transform="translate(1339 631)"><tspan x="-153.691" y="0">#3 send mail to contact address &gt;</tspan></text><text class="h" transform="translate(203 718)"><tspan x="0" y="0">^ #1 user inputs a message for an interesting entry</tspan></text><text class="g" transform="translate(203 762)"><tspan x="0" y="0">^ #1 user clicks option to administrate an entry</tspan></text><text class="g" transform="translate(202 544)"><tspan x="0" y="0">^ #2 forwarding to let the B.API create necessary magic</tspan></text><text class="f" transform="translate(104 1015)"><tspan x="0" y="0">A) Dusty entries</tspan></text><text class="g" transform="translate(315 1015)"><tspan x="0" y="0">B) Owner requests administration</tspan></text><text class="h" transform="translate(1166 1015)"><tspan x="0" y="0">E) FE User contacts an offer</tspan></text></g></svg>